<svg aria-hidden="true" style="position: absolute; width: 0; height: 0; overflow: hidden;" version="1.1" xmlns="http://www.w3.org/2000/svg" xmlns:xlink="http://www.w3.org/1999/xlink">
<defs>
<symbol id="icon-arrow" viewBox="0 0 32 32">
<title>arrow</title>
<path d="M21.548 5.088c-0.436-0.451-1.162-0.451-1.613 0-0.436 0.436-0.436 1.162 0 1.596l8.177 8.177h-26.984c-0.629 0.001-1.129 0.501-1.129 1.13s0.5 1.145 1.129 1.145h26.984l-8.177 8.162c-0.436 0.451-0.436 1.178 0 1.613 0.451 0.451 1.178 0.451 1.613 0l10.113-10.113c0.451-0.436 0.451-1.162 0-1.596l-10.113-10.114z"></path>
</symbol>
<symbol id="icon-instagram" viewBox="0 0 32 32">
<title>instagram</title>
<path d="M22 0h-12c-5.522 0-10 4.478-10 10v12c0 5.522 4.478 10 10 10h12c5.522 0 10-4.478 10-10v-12c0-5.522-4.478-10-10-10zM29 22c0 3.86-3.14 7-7 7h-12c-3.86 0-7-3.14-7-7v-12c0-3.86 3.14-7 7-7h12c3.86 0 7 3.14 7 7v12z"></path>
<path d="M16 8c-4.418 0-8 3.582-8 8s3.582 8 8 8 8-3.582 8-8-3.582-8-8-8zM16 21c-2.756 0-5-2.244-5-5 0-2.758 2.244-5 5-5s5 2.242 5 5c0 2.756-2.244 5-5 5z"></path>
<path d="M25.666 7.4c0 0.589-0.477 1.066-1.066 1.066s-1.066-0.477-1.066-1.066c0-0.589 0.477-1.066 1.066-1.066s1.066 0.477 1.066 1.066z"></path>
</symbol>
<symbol id="icon-benefit" viewBox="0 0 32 32">
<title>benefit</title>
<path fill="#ed691f" style="fill: var(--color1, #ed691f)" d="M26.708 22.047l-0.378 4.283h-4.157l-0.504-5.354c-0.882-0.126-1.827-0.189-2.772-0.252l-0.819 8.693h-4.157l-0.819-8.693c-1.008 0.063-1.89 0.126-2.772 0.252l-0.504 5.354h-4.157l-0.378-4.283c-3.465 1.071-5.291 2.709-5.291 4.283 0 2.709 5.606 5.669 16 5.669s16-2.961 16-5.669c0-1.575-1.827-3.213-5.291-4.283v0z"></path>
<path fill="#6d276d" style="fill: var(--color2, #6d276d)" d="M28.409 7.937l-2.079-0.567v-0.945c0.63-0.567 1.008-1.386 1.008-2.331v-1.008c0-1.701-1.386-3.087-3.087-3.087s-3.087 1.386-3.087 3.087v1.008c0 0.945 0.378 1.764 1.008 2.331v0.945l-2.142 0.567c-0.819 0.252-1.449 1.071-1.449 2.016v0.63l-0.504-0.126v-0.945c0.63-0.567 1.008-1.386 1.008-2.268v-1.071c0-1.701-1.386-3.087-3.087-3.087s-3.087 1.386-3.087 3.087v1.071c0 0.882 0.378 1.701 1.008 2.268v0.945l-0.504 0.126v-0.63c0-0.945-0.63-1.764-1.512-2.016l-2.079-0.567v-0.945c0.63-0.567 1.008-1.386 1.008-2.331v-1.008c0-1.701-1.386-3.087-3.087-3.087s-3.087 1.386-3.087 3.087v1.008c0 0.945 0.378 1.764 1.008 2.331v0.945l-2.079 0.567c-0.882 0.252-1.512 1.071-1.512 2.016v6.047c0 0.819 0.693 1.512 1.512 1.512 0.252 0 0.504-0.063 0.693-0.126l0.945 9.449h5.039l0.63-6.551c0.252 0.189 0.567 0.315 0.945 0.315 0.252 0 0.504-0.063 0.693-0.126l0.945 9.449h5.039l0.882-9.449c0.252 0.063 0.441 0.126 0.693 0.126 0.378 0 0.756-0.126 1.008-0.315l0.63 6.551h5.039l0.882-9.449c0.252 0.063 0.441 0.126 0.693 0.126 0.882 0 1.575-0.693 1.575-1.512v-6.047c0-0.945-0.63-1.764-1.512-2.016v0zM22.173 3.087c0-1.134 0.945-2.079 2.079-2.079s2.079 0.945 2.079 2.079v1.071c0 1.134-0.945 2.016-2.079 2.016s-2.079-0.882-2.079-2.016v-1.071zM24.252 7.244c0.378 0 0.693-0.063 1.008-0.189v0.567c-0.126 0.189-0.504 0.63-1.008 0.63-0.567 0-0.945-0.441-1.071-0.63v-0.567c0.378 0.126 0.693 0.189 1.071 0.189v0zM13.921 6.173c0-1.134 0.945-2.016 2.079-2.016s2.079 0.882 2.079 2.016v1.071c0 1.134-0.945 2.016-2.079 2.016s-2.079-0.882-2.079-2.016v-1.071zM16 10.331c0.378 0 0.693-0.063 1.008-0.189v0.567c-0.126 0.189-0.441 0.63-1.008 0.63s-0.945-0.441-1.071-0.63v-0.567c0.378 0.126 0.693 0.189 1.071 0.189v0zM5.669 3.087c0-1.134 0.945-2.079 2.079-2.079s2.079 0.945 2.079 2.079v1.071c0 1.134-0.945 2.016-2.079 2.016s-2.079-0.882-2.079-2.016v-1.071zM7.748 7.244c0.378 0 0.693-0.063 1.008-0.189v0.567c-0.126 0.189-0.441 0.63-1.008 0.63s-0.945-0.441-1.071-0.63v-0.567c0.378 0.126 0.693 0.189 1.071 0.189v0zM3.59 16.504c-0.252 0-0.504-0.252-0.504-0.504v-6.047c0-0.504 0.315-0.882 0.756-1.008l2.142-0.63c0.252 0.441 0.882 0.945 1.764 0.945s1.449-0.504 1.764-0.945l2.142 0.63c0.441 0.126 0.693 0.504 0.693 1.008v0.945l-0.567 0.126c-0.126 0.063-0.315 0.126-0.441 0.252v-0.441h-1.008v4.094h-5.165v-4.094h-1.071v5.165c0 0.252-0.189 0.504-0.504 0.504v0zM5.228 16h2.016v9.764h-1.134l-0.882-9.764zM8.252 25.764v-9.764h2.016l-0.945 9.764h-1.071zM13.48 19.087h2.016v9.764h-1.134l-0.882-9.764zM16.504 28.85v-9.764h2.016l-0.945 9.764h-1.071zM20.598 19.087c0 0.252-0.189 0.504-0.504 0.504-0.252 0-0.504-0.252-0.504-0.504v-5.165h-1.008v4.157h-5.165v-4.157h-1.071v5.165c0 0.252-0.189 0.504-0.504 0.504-0.252 0-0.504-0.252-0.504-0.504v-6.047c0-0.441 0.315-0.882 0.756-1.008l2.142-0.63c0.252 0.441 0.882 0.945 1.764 0.945s1.449-0.504 1.764-0.945l2.142 0.63c0.441 0.126 0.693 0.567 0.693 1.008v6.047zM21.732 16h2.016v9.764h-1.134l-0.882-9.764zM24.755 25.764v-9.764h2.016l-0.945 9.764h-1.071zM28.85 16c0 0.252-0.189 0.504-0.504 0.504-0.252 0-0.504-0.252-0.504-0.504v-5.165h-1.008v4.094h-5.165v-4.094h-1.071v0.441c-0.126-0.126-0.252-0.189-0.441-0.252l-0.567-0.126v-0.945c0-0.504 0.315-0.882 0.756-1.008l2.142-0.63c0.252 0.441 0.882 0.945 1.764 0.945s1.449-0.504 1.764-0.945l2.142 0.63c0.441 0.126 0.693 0.504 0.693 1.008v6.047z"></path>
</symbol>
<symbol id="icon-facebook" viewBox="0 0 32 32">
<title>facebook</title>
<path d="M18 11v-4c0-1.104 0.896-2 2-2h2v-5h-4c-3.314 0-6 2.686-6 6v5h-4v5h4v16h6v-16h4l2-5h-6z"></path>
</symbol>
<symbol id="icon-focus_area" viewBox="0 0 32 32">
<title>focus_area</title>
<path fill="#ed691f" style="fill: var(--color1, #ed691f)" d="M25.81 16c0 5.372-4.438 9.81-9.81 9.81s-9.81-4.438-9.81-9.81c0-5.372 4.438-9.81 9.81-9.81s9.81 4.438 9.81 9.81v0z"></path>
<path fill="#6d276d" style="fill: var(--color2, #6d276d)" d="M32 15.533h-3.153c-0.234-6.774-5.606-12.146-12.38-12.38v-3.153h-0.934v3.153c-6.774 0.234-12.146 5.606-12.38 12.38h-3.153v0.934h3.153c0.234 6.774 5.606 12.146 12.38 12.38v3.153h0.934v-3.153c6.774-0.234 12.146-5.606 12.38-12.38h3.153v-0.934zM27.796 15.533h-1.985c-0.35-5.022-4.321-9.11-9.343-9.343v-2.102c6.19 0.35 11.095 5.255 11.328 11.445v0zM22.657 15.533c-0.234-3.387-2.92-5.956-6.19-6.19v-2.102c4.438 0.234 8.058 3.854 8.292 8.292h-2.102zM9.343 16.467c0.234 3.27 2.803 5.956 6.19 6.19v2.102c-4.438-0.234-8.058-3.854-8.292-8.292h2.102zM15.533 16.467v2.102c-1.051-0.234-1.869-1.051-2.102-2.102h2.102zM13.431 15.533c0.234-1.051 1.051-1.869 2.102-2.102v2.102h-2.102zM16.467 16.467h2.102c-0.234 1.051-1.051 1.869-2.102 2.102v-2.102zM16.467 15.533v-2.102c1.051 0.234 1.869 1.051 2.102 2.102h-2.102zM15.533 12.38c-1.635 0.234-2.92 1.518-3.153 3.153h-1.985c0.234-2.803 2.336-4.905 5.139-5.139v1.985zM12.38 16.467c0.234 1.635 1.518 2.92 3.153 3.153v1.985c-2.803-0.234-4.905-2.336-5.139-5.139h1.985zM16.467 19.62c1.635-0.234 2.92-1.518 3.153-3.153h1.985c-0.234 2.803-2.336 4.905-5.139 5.139v-1.985zM19.62 15.533c-0.234-1.635-1.518-2.92-3.153-3.153v-1.985c2.803 0.234 4.905 2.336 5.139 5.139h-1.985zM15.533 4.088v2.102c-4.672 0.234-8.409 3.62-9.226 8.175l1.051 0.117c0.701-3.971 4.088-7.007 8.175-7.241v2.102c-3.387 0.234-5.956 2.803-6.19 6.19h-5.255c0.35-6.19 5.255-11.095 11.445-11.445v0zM4.088 16.467h2.102c0.234 5.022 4.321 8.993 9.343 9.343v1.985c-6.19-0.234-11.095-5.139-11.445-11.328v0zM16.467 27.796v-1.985c4.672-0.234 8.409-3.62 9.226-8.175l-1.051-0.234c-0.701 4.088-4.088 7.124-8.175 7.358v-2.102c3.27-0.234 5.956-2.92 6.19-6.19h5.139c-0.234 6.19-5.139 11.095-11.328 11.328v0z"></path>
</symbol>
<symbol id="icon-google-plus" viewBox="0 0 32 32">
<title>google-plus</title>
<path d="M28 14v-4h-2v4h-4v2h4v4h2v-4h4v-2z"></path>
<path d="M10 14v4h5.658c-0.826 2.328-3.050 4-5.658 4-3.308 0-6-2.692-6-6s2.692-6 6-6c1.434 0 2.814 0.514 3.886 1.448l2.628-3.016c-1.8-1.568-4.112-2.432-6.514-2.432-5.514 0-10 4.486-10 10s4.486 10 10 10 10-4.486 10-10v-2h-10z"></path>
</symbol>
<symbol id="icon-project" viewBox="0 0 32 32">
<title>project</title>
<path fill="#ed691f" style="fill: var(--color1, #ed691f)" d="M20.482 0.015c-1.82 0.138-3.503 0.979-4.788 2.264l-0.046 0.046-0.046-0.046c-1.285-1.285-2.968-2.126-4.788-2.264-4.268-0.291-7.848 3.090-7.848 7.297 0 1.958 0.765 3.794 2.157 5.186l8.643 8.643 1.101-1.086c0.765-0.765 1.943-0.918 2.861-0.382l0.811 0.459 7.649-7.634c1.377-1.392 2.142-3.228 2.142-5.186 0-4.207-3.58-7.588-7.848-7.297z"></path>
<path fill="#6d276d" style="fill: var(--color2, #6d276d)" d="M26.295 22.825v1.514h-1.851l-6.395-5.033c-0.459-0.352-1.025-0.551-1.591-0.551h-0.275c-1.407 0-2.57 1.147-2.57 2.57 0 0.78 0.352 1.514 0.964 2.004l0.566 0.444-1.163 0.581-1.484 0.184-2.524-3.381c-0.413-0.551-1.071-0.872-1.759-0.872-1.209 0-2.188 0.979-2.203 2.172l-0.673-0.597c-0.428-0.367-0.964-0.566-1.514-0.566h-0.076c-1.27 0-2.295 1.040-2.295 2.295 0 0.627 0.245 1.193 0.673 1.637l2.968 2.968c0.765 0.765 1.729 1.3 2.784 1.56l3.947 0.994c0.474 0.122 0.964 0.184 1.453 0.184h11.045l1.973-0.398v0.903h5.079v-8.613h-5.079zM7.035 23.329v-0.857c0-0.643 0.52-1.178 1.178-1.178 0.367 0 0.719 0.184 0.948 0.474l2.188 2.907-1.132 0.153c-0.826 0.092-1.683-0.168-2.31-0.719l-0.903-0.78h0.031zM24.215 29.923h-10.938c-0.398 0-0.811-0.061-1.193-0.153l-3.962-0.994c-0.872-0.214-1.683-0.673-2.31-1.3l-2.968-2.968c-0.245-0.245-0.382-0.566-0.382-0.918 0-0.704 0.581-1.285 1.285-1.285h0.076c0.306 0 0.612 0.122 0.841 0.321l2.57 2.249c0.857 0.75 1.989 1.101 3.121 0.948l3.916-0.49 1.729-0.857c0.184 0.184 0.306 0.413 0.398 0.658 0.138 0.444 0.107 0.918-0.092 1.331l-0.092 0.184 0.903 0.459 0.092-0.184c0.321-0.658 0.382-1.407 0.153-2.111-0.168-0.505-0.49-0.948-0.903-1.285l-1.239-0.994c-0.367-0.291-0.581-0.734-0.581-1.209 0-0.857 0.688-1.545 1.545-1.545h0.275c0.352 0 0.688 0.107 0.964 0.321l6.67 5.247h2.203v4.146l-2.081 0.428zM30.349 30.428h-3.044v-6.593h3.044v6.593z"></path>
<path fill="#6d276d" style="fill: var(--color2, #6d276d)" d="M28.33 24.844h1.014v1.014h-1.014v-1.014z"></path>
<path fill="#6d276d" style="fill: var(--color2, #6d276d)" d="M6.362 9.011c-0.229-0.535-0.352-1.101-0.352-1.698 0-2.356 1.928-4.268 4.283-4.268v-1.010c-2.922 0-5.293 2.371-5.293 5.278 0 0.734 0.138 1.438 0.428 2.096l0.933-0.398z"></path>
<path fill="#6d276d" style="fill: var(--color2, #6d276d)" d="M6.546 11.060l0.719-0.719c-0.184-0.199-0.367-0.398-0.52-0.627l-0.841 0.566c0.184 0.275 0.413 0.535 0.643 0.78z"></path>
</symbol>
<symbol id="icon-tick" viewBox="0 0 32 32">
<title>tick</title>
<path fill="#7e71b1" style="fill: var(--color3, #7e71b1)" d="M0 19.121v0.318c0.106 0.29 0.052 0.578 0.475 1.054 0.684 0.711 1.632 1.607 2.343 2.319l6.191 6.188c0.5 0.527 0.999 1.054 1.526 1.556 0.502 0.448 1.344 0.921 2.292 0.842 1.265-0.185 1.792-1.026 2.371-1.895 0.185-0.29 0.369-0.581 0.581-0.869 0.657-1.029 1.632-2.425 2.319-3.451 0.79-1.132 1.553-2.267 2.316-3.424l4.662-6.851c0.79-1.132 1.556-2.292 2.319-3.449 0.79-1.135 1.553-2.267 2.319-3.427l1.765-2.555c0.209-0.315 0.342-0.527 0.421-0.999 0.079-1.187-0.633-1.529-1.29-1.977l-1.898-1.29c-0.342-0.236-0.921-0.684-1.529-0.581-0.711 0.054-1.078 0.423-1.42 0.923l-4.638 6.824c-0.606 0.921-1.211 1.844-1.844 2.737-1.58 2.267-3.082 4.559-4.635 6.851l-2.319 3.424c-0.13 0.158-0.342 0.527-0.475 0.657-0.13-0.052-0.263-0.236-0.367-0.369l-5.349-5.32c-0.263-0.263-0.79-0.844-1.105-1.027-0.158-0.081-0.342-0.16-0.527-0.185-1.002-0.212-1.553 0.473-1.95 0.842-0.236 0.263-1.977 1.95-2.107 2.161-0.448 0.551-0.315 0.657-0.448 0.972z"></path>
</symbol>
<symbol id="icon-touch_points" viewBox="0 0 32 32">
<title>touch_points</title>
<path fill="#ed691f" style="fill: var(--color1, #ed691f)" d="M29.837 25.293c-0.413 0-0.787-0.216-1.023-0.551-0.413-0.629-1.121-1.003-1.868-1.003h-1.003c-0.924 0-1.75 0.551-2.085 1.416l-0.157 0.393c-0.197 0.472-0.629 0.767-1.141 0.767h-1.711c-0.61 0-1.16 0.236-1.593 0.669l-0.531 0.531c-0.236 0.216-0.531 0.354-0.865 0.354h-0.118c-1.239 0-2.262 1.003-2.262 2.262v1.357h16.010v-6.195h-1.652z"></path>
<path fill="#ed691f" style="fill: var(--color1, #ed691f)" d="M14.181 19.157l-1.062-0.531c-0.452-0.216-0.728-0.688-0.728-1.18v-0.452c0-0.806-0.393-1.534-1.062-1.967l-1.455-0.983c-0.354-0.236-0.59-0.649-0.59-1.101v-1.082h-2.577v13.433h-3.088c-1.711 0-3.108 1.377-3.108 3.088s1.396 3.108 3.108 3.108h9.795v-0.787c0-1.514-0.492-3.049-1.573-4.111-0.354-0.354-0.531-0.846-0.472-1.357 0.079-0.688 0.629-1.259 1.298-1.416l0.924-0.236c1.003-0.256 1.79-1.062 1.888-2.085 0.079-0.983-0.433-1.908-1.298-2.34v0z"></path>
<path fill="#ed691f" style="fill: var(--color1, #ed691f)" d="M21.163 11.86v1.809c0 0.649 0.236 1.239 0.688 1.691l0.452 0.452c0.256 0.256 0.413 0.59 0.413 0.964v0.452c0 1.318 1.062 2.38 2.38 2.38h0.079c0.511 0 0.964 0.295 1.2 0.747 0.413 0.806 1.219 1.318 2.124 1.318h2.99v-9.814h-10.326z"></path>
<path fill="#6d276d" style="fill: var(--color2, #6d276d)" d="M18.586 2.065c-1.436 0-2.596 1.16-2.596 2.577h1.042c0-0.846 0.688-1.554 1.554-1.554v-1.023z"></path>
<path fill="#6d276d" style="fill: var(--color2, #6d276d)" d="M20.12 11.348v-2.321c1.809-0.649 3.108-2.36 3.108-4.386 0-2.557-2.085-4.642-4.642-4.642-2.577 0-4.661 2.085-4.661 4.642 0 2.026 1.298 3.737 3.108 4.386v2.321h-9.814v-6.195h-3.599c-2.006 0-3.619 1.632-3.619 3.619v19.609c0 1.986 1.613 3.619 3.619 3.619h28.381v-20.651h-11.88zM14.967 4.642c0-1.986 1.613-3.619 3.619-3.619 1.986 0 3.599 1.632 3.599 3.619s-1.613 3.619-3.599 3.619c-2.006 0-3.619-1.632-3.619-3.619v0zM18.586 9.283c0.157 0 0.334 0 0.511-0.020v13.237l-0.511 0.511-0.531-0.511v-13.237c0.177 0.020 0.354 0.020 0.531 0.020v0zM1.023 8.772c0-1.416 1.16-2.577 2.596-2.577h2.577v18.567h-2.577c-1.023 0-1.927 0.433-2.596 1.101v-17.092zM30.958 30.958h-27.339c-1.436 0-2.596-1.16-2.596-2.577s1.16-2.577 2.596-2.577h3.599v-13.414h9.814v10.522l1.554 1.554 1.534-1.554v-10.522h10.837v18.567z"></path>
<path fill="#6d276d" style="fill: var(--color2, #6d276d)" d="M28.892 13.414h1.032v1.032h-1.032v-1.032z"></path>
<path fill="#6d276d" style="fill: var(--color2, #6d276d)" d="M5.153 26.827h1.032v1.032h-1.032v-1.032z"></path>
<path fill="#6d276d" style="fill: var(--color2, #6d276d)" d="M9.814 28.892h1.032v1.032h-1.032v-1.032z"></path>
<path fill="#6d276d" style="fill: var(--color2, #6d276d)" d="M25.805 27.358h1.032v1.032h-1.032v-1.032z"></path>
<path fill="#6d276d" style="fill: var(--color2, #6d276d)" d="M20.651 28.892h1.032v1.032h-1.032v-1.032z"></path>
<path fill="#6d276d" style="fill: var(--color2, #6d276d)" d="M8.261 19.609h1.032v1.032h-1.032v-1.032z"></path>
</symbol>
<symbol id="icon-twitter" viewBox="0 0 32 32">
<title>twitter</title>
<path d="M32 6.078c-1.19 0.522-2.458 0.868-3.78 1.036 1.36-0.812 2.398-2.088 2.886-3.626-1.268 0.756-2.668 1.29-4.16 1.588-1.204-1.282-2.92-2.076-4.792-2.076-3.632 0-6.556 2.948-6.556 6.562 0 0.52 0.044 1.020 0.152 1.496-5.454-0.266-10.28-2.88-13.522-6.862-0.566 0.982-0.898 2.106-0.898 3.316 0 2.272 1.17 4.286 2.914 5.452-1.054-0.020-2.088-0.326-2.964-0.808 0 0.020 0 0.046 0 0.072 0 3.188 2.274 5.836 5.256 6.446-0.534 0.146-1.116 0.216-1.72 0.216-0.42 0-0.844-0.024-1.242-0.112 0.85 2.598 3.262 4.508 6.13 4.57-2.232 1.746-5.066 2.798-8.134 2.798-0.538 0-1.054-0.024-1.57-0.090 2.906 1.874 6.35 2.944 10.064 2.944 12.072 0 18.672-10 18.672-18.668 0-0.29-0.010-0.57-0.024-0.848 1.302-0.924 2.396-2.078 3.288-3.406z"></path>
</symbol>
<symbol id="icon-youtube" viewBox="0 0 32 32">
<title>youtube</title>
<path d="M30.64 7.12c-0.868-1.544-1.81-1.828-3.728-1.936-1.916-0.13-6.734-0.184-10.908-0.184-4.182 0-9.002 0.054-10.916 0.182-1.914 0.11-2.858 0.392-3.734 1.938-0.894 1.542-1.354 4.198-1.354 8.874 0 0.004 0 0.006 0 0.006 0 0.004 0 0.006 0 0.006v0.004c0 4.656 0.46 7.332 1.354 8.858 0.876 1.544 1.818 1.824 3.732 1.954 1.916 0.112 6.736 0.178 10.918 0.178 4.174 0 8.992-0.066 10.91-0.176 1.918-0.13 2.86-0.41 3.728-1.954 0.902-1.526 1.358-4.202 1.358-8.858 0 0 0-0.006 0-0.010 0 0 0-0.004 0-0.006 0-4.678-0.456-7.334-1.36-8.876zM12 22v-12l10 6-10 6z"></path>
</symbol>
</defs>
</svg>
