<?xml version="1.0" encoding="UTF-8"?>
<!DOCTYPE svg PUBLIC "-//W3C//DTD SVG 1.0//EN" "http://www.w3.org/TR/2001/REC-SVG-20010904/DTD/svg10.dtd">
<!-- Creator: CorelDRAW X8 -->
<svg xmlns="http://www.w3.org/2000/svg" xml:space="preserve" width="129.613mm" height="125.087mm" version="1.0" style="shape-rendering:geometricPrecision; text-rendering:geometricPrecision; image-rendering:optimizeQuality; fill-rule:evenodd; clip-rule:evenodd"
viewBox="0 0 12961 12509"
 xmlns:xlink="http://www.w3.org/1999/xlink">
 <defs>
  <style type="text/css">
   <![CDATA[
    .fil0 {fill:#7E71B1}
   ]]>
  </style>
 </defs>
 <g id="Layer_x0020_1">
  <metadata id="CorelCorpID_0Corel-Layer"/>
  <path class="fil0" d="M0 7518l0 129c43,118 21,235 193,428 278,289 663,653 952,942l2515 2514c203,214 406,428 620,632 204,182 546,374 931,342 514,-75 728,-417 963,-770 75,-118 150,-236 236,-353 267,-418 663,-985 942,-1402 321,-460 631,-921 941,-1391l1894 -2783c321,-460 632,-931 942,-1401 321,-461 631,-921 942,-1392l717 -1038c85,-128 139,-214 171,-406 32,-482 -257,-621 -524,-803l-771 -524c-139,-96 -374,-278 -621,-236 -289,22 -438,172 -577,375l-1884 2772c-246,374 -492,749 -749,1112 -642,921 -1252,1852 -1883,2783l-942 1391c-53,64 -139,214 -193,267 -53,-21 -107,-96 -149,-150l-2173 -2161c-107,-107 -321,-343 -449,-417 -64,-33 -139,-65 -214,-75 -407,-86 -631,192 -792,342 -96,107 -803,792 -856,878 -182,224 -128,267 -182,395z"/>
 </g>
</svg>
